<svg xmlns="http://www.w3.org/2000/svg" viewBox="0 0 192 192">
  <defs>
    <radialGradient id="bg" cx="50%" cy="50%" r="65%">
      <stop offset="0%" stop-color="#e0eef8"/>
      <stop offset="100%" stop-color="#a8c8e8"/>
    </radialGradient>
  </defs>
  <rect width="192" height="192" rx="34" fill="url(#bg)"/>
  <g transform="translate(96,116)">
    <path d="M-46,-20 C-54,-36 -44,-80 -22,-90 C-10,-68 -6,-52 -20,-38 Z" fill="#3d1800" stroke="#c07828" stroke-width="1.6"/>
    <path d="M-42,-26 C-48,-38 -40,-74 -22,-84 C-14,-66 -12,-52 -22,-40 Z" fill="#e8a050" opacity="0.28"/>
    <path d="M46,-20 C54,-36 44,-80 22,-90 C10,-68 6,-52 20,-38 Z" fill="#3d1800" stroke="#c07828" stroke-width="1.6"/>
    <path d="M42,-26 C48,-38 40,-74 22,-84 C14,-66 12,-52 22,-40 Z" fill="#e8a050" opacity="0.28"/>
    <ellipse cx="0" cy="0" rx="52" ry="48" fill="#3d1800" stroke="#c07828" stroke-width="2"/>
    <path d="M-20,-36 Q0,-46 20,-36" fill="none" stroke="#e8a050" stroke-width="1" opacity="0.5"/>
    <path d="M-30,-28 Q0,-42 30,-28" fill="none" stroke="#e8a050" stroke-width="1" opacity="0.28"/>
    <path d="M-30,-8 C-30,-30 -6,-30 0,-8 C-6,14 -30,14 -30,-8 Z" fill="none" stroke="#c07828" stroke-width="2.4"/>
    <path d="M30,-8 C30,-30 6,-30 0,-8 C6,14 30,14 30,-8 Z" fill="none" stroke="#c07828" stroke-width="2.4"/>
    <path d="M-30,-8 C-30,-30 -6,-30 0,-8 C-6,14 -30,14 -30,-8 Z" fill="#e8a050" opacity="0.1"/>
    <path d="M30,-8 C30,-30 6,-30 0,-8 C6,14 30,14 30,-8 Z" fill="#e8a050" opacity="0.1"/>
    <circle cx="-18" cy="-8" r="10" fill="#1a0800" stroke="#c07828" stroke-width="1.2"/>
    <circle cx="-18" cy="-8" r="6" fill="#e8a050"/>
    <circle cx="-18" cy="-8" r="2.6" fill="#0d0400"/>
    <circle cx="-16" cy="-11" r="2.2" fill="white" opacity="0.7"/>
    <circle cx="18" cy="-8" r="10" fill="#1a0800" stroke="#c07828" stroke-width="1.2"/>
    <circle cx="18" cy="-8" r="6" fill="#e8a050"/>
    <circle cx="18" cy="-8" r="2.6" fill="#0d0400"/>
    <circle cx="20" cy="-11" r="2.2" fill="white" opacity="0.7"/>
    <circle cx="0" cy="-8" r="4" fill="#c07828" opacity="0.55"/>
    <ellipse cx="-18" cy="-8" rx="24" ry="20" fill="none" stroke="#c07828" stroke-width="0.8" opacity="0.3"/>
    <ellipse cx="18" cy="-8" rx="24" ry="20" fill="none" stroke="#c07828" stroke-width="0.8" opacity="0.3"/>
    <polygon points="0,8 -7,18 7,18" fill="#e8a050"/>
    <polygon points="0,13 -7,18 7,18" fill="#b06018" opacity="0.4"/>
  </g>
</svg>
